<?xml version="1.0"?><svg width="300" height="460" xmlns="http://www.w3.org/2000/svg">
 <title>Pink Cat</title>
 <defs>
  <filter color-interpolation-filters="sRGB" id="filter3449">
   <feGaussianBlur stdDeviation="18.392255" id="feGaussianBlur3451"/>
  </filter>
 </defs>
 <metadata id="metadata7">image/svg+xml</metadata>
 <g>
  <title>Layer 1</title>
  <path filter="url(#filter3449)" d="m163.089005,11.6345c-0.121002,0 -0.240997,0.003 -0.362,0.009001c-3.89801,0.1848 -6.950012,3.4031 -6.906006,7.284499c0.044006,3.881401 3.167999,7.0338 7.069,7.131201c7.843002,0.3001 16.162994,1.1647 24.931,0.9377c5.552002,-0.1439 11.076996,0.5105 16.320999,1.8932c-4.147995,3.645899 -6.951004,6.996099 -6.951004,6.996099c0,0 -19.806992,-3.115398 -29.108002,-4.1922c-11.284988,-1.306499 -26.393997,-1.757999 -37.753998,-1.757999c-11.360992,0 -26.469994,0.4515 -37.754997,1.757999c-9.300896,1.076801 -27.939095,3.0382 -27.938995,3.0382c0,0 -6.871201,-7.7194 -15.478703,-12.4594c-8.607498,-4.740101 -16.058601,-8.3304 -16.058601,-8.3304c0,0 3.298702,20.7992 3.298702,36.206301c0,10.673298 -8.310301,32.387402 -8.310301,36.503696c0,16.4646 8.809702,34.167603 26.688902,44.437599c19.290199,11.07901 36.471001,8.122009 48.737999,12.360001c0.270996,0.264008 0.547997,0.518005 0.824997,0.766006c-1.447998,13.306992 -3.665001,30.560989 -6.334999,36.035995c-0.070999,0.143005 -0.138,0.277008 -0.209,0.404999c-7.923996,14.244995 -12.938698,31.992996 -21.187599,48.475998c-0.202797,0.404999 -0.409401,0.814011 -0.616203,1.21701c-0.022095,-0.003006 -0.217499,-0.036011 -0.217499,-0.036011l-1.1147,2.561005c-0.585899,1.085007 -1.182693,2.166 -1.803398,3.235992c-14.701599,35.412994 -25.462601,48.882019 -27.350399,79.542999c-0.013901,0.226013 -0.023399,0.458008 -0.036301,0.686005c-0.104801,-0.023987 -0.516598,-0.117004 -0.516499,-0.117004l0.072399,12.738007c-0.627998,12.519989 -1.886101,58.781006 12.3521,79.166016c-10.7407,0.759979 -28.218901,-3.841003 -33.6488,-1.768005c-5.8095,2.218994 -9.0262,7.953979 -9.0262,10.511993c0,2.559998 3.216599,14.894012 9.0262,17.112c5.809599,2.218994 14.209999,-2.381012 24.595501,-0.703003c10.385498,1.678009 22.757599,3.036987 36.485298,3.975006c13.728104,0.938995 28.814102,3.110992 44.6511,3.110992c15.835999,0 30.921997,-2.171997 44.649994,-3.110992c13.728012,-0.938019 26.100006,-2.296997 36.486008,-3.975006c10.384995,-1.678009 18.785995,2.921997 24.595001,0.703003c5.809998,-2.217987 9.026001,-11.252014 9.026001,-13.812012c0,-2.559998 -3.216003,-11.592987 -9.026001,-13.811981c-5.354004,-2.044006 -22.891998,2.399994 -33.738998,1.794983c4.483002,-6.148987 7.440994,-14.578979 9.378998,-23.701996c2.229996,0.016998 4.365005,-0.988983 5.763992,-2.766998c5.406006,-6.510986 13.63501,-13.182983 17.89801,-24.35199c3.134003,-8.209015 6.923996,-16.792023 8.681992,-26.812012c2.258011,-12.869995 4.59201,-26.480988 4.205002,-40.316986c-0.285004,-10.175018 -1.106003,-21.486023 -5.102005,-32.014008c-1.887985,-4.973999 -4.821991,-8.63501 -7.013992,-11.783005c-2.192993,-3.147995 -3.533005,-5.643997 -3.807007,-7.365997c-1.483994,-9.350006 -2.123993,-19.669006 0.126999,-27.126999c3.149002,-10.430008 10.403,-20.639999 17.998001,-31.014008c10.339996,-14.120987 24.352997,-28.901993 30.731018,-47.330994c4.855988,-14.029999 3.029999,-29.949997 -0.100006,-43.067101c-2.94101,-12.3255 -7.40802,-26.261803 -16.356995,-37.0807c-10.287018,-12.434601 -23.694016,-23.0741 -37.836014,-30.914c0.520996,-4.8046 0.960007,-7.9877 0.960007,-7.9877c0,0 -2.917999,1.801101 -7.694,4.5167c-9.805008,-4.5259 -20.768997,-6.741899 -31.845001,-6.455099c-7.520996,0.194799 -15.524002,-0.613701 -23.988007,-0.9376c-0.121002,-0.006001 -0.241989,-0.009001 -0.362991,-0.009001l0,0l0,0zm61.560989,26.848201c10.550003,6.614399 20.440002,14.964699 28.003006,24.1073c6.453995,7.801197 10.733994,19.868099 13.44899,31.2477c2.766022,11.5933 3.795013,25.535301 0.507996,35.034294c-4.945984,14.289001 -17.700989,28.449005 -28.746979,43.535004c-7.610001,10.395004 -16.047012,21.722 -20.16301,35.359009c-3.418991,11.322998 -2.171997,23.37999 -0.561996,33.519989c0.899994,5.671997 3.779999,9.848007 6.207001,13.334c2.427994,3.485016 4.509995,6.420013 5.365005,8.673004c2.981995,7.855011 3.908997,17.694 4.177994,27.308014c0.334,11.92099 -1.751007,24.640991 -3.996002,37.440979c-1.380005,7.862 -4.662003,15.559998 -7.947998,24.170013c-1.460999,3.828979 -4.085999,7.247986 -7.259003,10.890991c1.193008,-17.132996 0.119995,-32.542999 -0.190002,-36.385986l-0.154999,-10.494019c0,0 -0.175003,0.041016 -0.190002,0.045013c-0.010986,-0.20401 -0.023987,-0.412018 -0.035995,-0.614014c-1.888,-30.66098 -12.639999,-44.130005 -27.341003,-79.542999c-0.246002,-0.422989 -0.485992,-0.854996 -0.724991,-1.279999l-1.893997,-4.516998c0,0 -0.389999,0.063004 -0.508011,0.081009c-0.237,-0.460007 -0.474991,-0.92601 -0.707001,-1.388c-8.397995,-16.740005 -13.403,-34.477005 -21.278,-48.639008c-0.140991,-0.252991 -0.274994,-0.542999 -0.416992,-0.86499c-2.479004,-5.746002 -4.67601,-22.070999 -6.098999,-34.927002c0.406998,-0.359009 0.807999,-0.73201 1.205002,-1.126007c12.704987,-4.490997 30.069992,-0.268997 51.120987,-12.360001c17.879013,-10.269997 24.360001,-27.973 24.360001,-44.437599c0,-4.116295 -6.682999,-25.478798 -6.560989,-36.503696c0,-3.790802 0.147995,-7.7784 0.37999,-11.666z" stroke-width="20.052" stroke-miterlimit="4" stroke-linejoin="round" stroke-linecap="round" stroke-dashoffset="75" stroke="#000000" fill="#463654" id="path2386"/>
  <path d="m244.214005,420.17099c0.14299,10.795013 -13.062012,17.919006 -22.44101,13.167999c-16.167999,-0.915985 -31.987991,3.671997 -48.113998,3.996002c-25.106003,2.489014 -50.482994,4.375 -75.615997,1.095001c-18.033798,-1.257996 -35.9744,-3.541992 -53.944298,-5.333984c-8.448402,-1.053009 -18.891701,5.591003 -24.946501,-3.343994c-5.860901,-6.549011 -5.910101,-19.821014 3.7607,-22.82901c12.162699,-3.237 24.389898,3.076996 36.6859,0.903992c10.142899,-1.506989 19.915497,-5.307007 30.311203,-5.057983c28.187996,-1.46701 56.520996,-1.71402 84.673996,0.453979c12.468994,0.899994 24.371994,6.576996 37.042999,4.658997c7.785004,-0.106995 15.697006,-3.712982 23.330994,-1.252991c5.409012,2.252991 8.640015,7.924011 9.256012,13.541992z" stroke-width="5.15623" stroke-miterlimit="4" stroke-linejoin="round" stroke-linecap="round" stroke-dashoffset="75" stroke="#000000" fill="#ffff00" id="path3366"/>
  <path d="m162.727005,11.6433c-3.081009,1.3227 -6.943008,3.9485 -6.904999,7.286099c0.037994,3.3377 3.998001,5.783701 7.067993,7.129601c7.610001,3.336201 16.682999,-0.118799 24.931,0.937799c9.184998,1.176401 18.757004,2.035101 27.124008,5.986202c14.464996,6.8316 27.972,16.960197 37.707993,29.606899c6.92601,8.995296 11.081009,20.164898 13.44899,31.2477c2.44101,11.423401 3.790009,23.821396 0.507996,35.033401c-4.879974,16.669998 -19.644989,28.722 -28.745987,43.535995c-7.104004,11.561996 -16.578995,22.285995 -20.164001,35.359009c-2.957001,10.780991 -2.888,22.58699 -0.561996,33.519989c1.018997,4.792007 3.878998,9.018005 6.207993,13.333008c1.614014,2.991989 4.190002,5.486984 5.364014,8.672989c3.185989,8.64502 3.968994,18.104004 4.177994,27.309021c0.285995,12.546997 -1.354004,25.168976 -3.996002,37.440979c-1.785004,8.289001 -3.987,16.665009 -7.947998,24.170013c-3.970993,7.524994 -12.057007,12.518005 -15.524002,20.285004c-0.996002,2.231995 -2.190994,4.904999 -1.354996,7.199982c0.835999,2.296021 3.251999,4.28302 5.675995,4.667023c2.423996,0.383972 4.908997,-1.189026 6.852997,-2.680023c8.004013,-6.140991 13.307007,-15.391998 17.89801,-24.350983c4.287003,-8.365021 6.737991,-17.623993 8.681992,-26.812012c2.798004,-13.221008 4.570999,-26.811005 4.205002,-40.316986c-0.291992,-10.800995 -1.418991,-21.848999 -5.102005,-32.014008c-1.556,-4.294998 -4.794998,-7.78801 -7.013992,-11.783005c-1.341995,-2.416 -3.160004,-4.681992 -3.807007,-7.365997c-2.116989,-8.794006 -2.245987,-18.399002 0.126999,-27.126999c3.133011,-11.522995 11.742004,-20.828003 17.998001,-31.014008c9.845001,-16.026001 25.412018,-29.309998 30.731018,-47.330994c4.065002,-13.775002 2.878998,-29.021004 -0.100006,-43.0672c-2.800995,-13.207397 -8.063995,-26.397697 -16.356995,-37.080601c-10.994019,-14.160698 -26.081009,-25.608601 -42.322006,-33.2943c-10.513,-4.9752 -22.548004,-6.0549 -34.093002,-7.545899c-7.936005,-1.0249 -15.987,-0.781401 -23.988007,-0.9377c-0.241989,-0.005 -0.502991,-0.0953 -0.724991,0l0,0z" stroke-width="5.81504" stroke-miterlimit="4" stroke-linejoin="round" stroke-linecap="round" stroke="#000000" fill-rule="evenodd" fill="#ffff00" id="path3368"/>
  <path d="m213.408997,325.770996c0,0 6.986008,74.269012 -19.813004,89.661011c-25.266998,14.513 -44.291992,13.372986 -64.285995,13.372986c-19.994995,0 -43.6492,-1.518982 -64.287201,-13.372986c-25.418297,-14.598999 -19.812698,-89.661011 -19.812698,-89.661011c0,-38.220001 11.420101,-50.583984 27.642601,-89.660995c10.6278,-18.313004 15.8797,-39.171005 24.935303,-55.451996c4.528,-8.141006 7.813995,-50.796005 8.305,-53.068008c1.273994,-5.900993 46.369995,-3.614998 46.369995,-0.108994c0,0 3.699997,44.794998 8.199997,52.888c9,16.184998 14.251999,37.042999 25.103012,55.740997c16.222992,39.077011 27.64299,51.440994 27.64299,89.660995z" fill="#463654" id="path3370"/>
  <path d="m106.483002,156.731995c0,0 15.091995,2.957001 23.076004,2.957001c7.983002,0 23.077988,-2.957001 23.077988,-2.957001l4.359009,8.332001c0,0 -15.399002,4.031998 -27.436996,4.031998c-11.701004,0 -27.641006,-4.031998 -27.641006,-4.031998l4.565002,-8.332001z" fill="#463654" id="path3372"/>
  <path d="m136.681,170.910004c0,3.968994 -3.233994,7.185989 -7.223999,7.185989c-3.988998,0 -7.223,-3.216995 -7.223,-7.185989c0,-3.968002 3.234001,-7.184998 7.223,-7.184998c3.990005,0 7.223999,3.216995 7.223999,7.184998z" fill="#463654" id="path3376"/>
  <path d="m75.773102,230.315994c0,0 34.107895,5.567001 53.683899,5.567001c19.576004,0 53.690994,-5.567001 53.690994,-5.567001l13.589005,32.453018c0,0 -37.761002,9.753998 -67.279999,9.753998c-28.690002,0 -67.776501,-9.753998 -67.776501,-9.753998l14.092602,-32.453018z" stroke-width="5.58592" stroke-miterlimit="4" stroke-linejoin="round" stroke-linecap="round" stroke-dashoffset="75" stroke="#000000" fill="#463654" id="path3378"/>
  <path d="m44.953499,316.223999c0,0 37.774101,8.932007 84.562508,8.932007c45.463989,0 83.821991,-8.932007 83.821991,-8.932007l0.503998,34.828003c0,0 -21.261002,17.929993 -84.325989,17.027985c-62.401108,-0.890991 -84.361206,-17.027985 -84.361206,-17.027985l-0.201302,-34.828003z" stroke-width="5.58592" stroke-miterlimit="4" stroke-linejoin="round" stroke-linecap="round" stroke-dashoffset="75" stroke="#000000" fill="#463654" id="path3380"/>
  <path d="m213.408997,325.770996c1.169006,28.226013 3.230011,59.244019 -13.403,83.839996c-21.802002,20.714996 -54.207993,19.540009 -82.255997,18.917023c-20.889,-1.246002 -44.571899,-3.88501 -59.549702,-20.042023c-14.211498,-20.338989 -12.313099,-46.393982 -13.559196,-69.957001c-0.636501,-27.985992 4.874798,-56.23999 18.484299,-80.914978c18.214802,-38.64502 40.0126,-77.487015 42.742596,-120.999008c4.636002,-15.704002 27.373001,-15.987007 39.480011,-9.990005c11.772995,10.682007 5.811996,28.156006 11.880997,41.419998c13.116989,48.647003 45.671997,90.073013 55.296997,139.83699c0.729004,5.932007 0.940002,11.917023 0.882996,17.889008z" stroke-width="6.87498" stroke-miterlimit="4" stroke-linejoin="round" stroke-linecap="round" stroke-dashoffset="75" stroke="#000000" fill="#ffff00" id="path3374"/>
  <path d="m230.834,86.658997c0,16.465004 -6.490005,34.165001 -24.369003,44.434998c-21.050995,12.090012 -38.406998,7.869003 -51.112991,12.360001c-10.253006,10.200012 -24.445007,8.302002 -24.445007,8.302002c0,0 -16.120995,2.678009 -27.394997,-8.302002c-12.266998,-4.237991 -29.452202,-1.280991 -48.7425,-12.360001c-17.8792,-10.269997 -26.688702,-27.969994 -26.688702,-44.434998c0,-4.116096 8.309299,-25.834496 8.309299,-36.507797c0,-15.407101 -3.2906,-36.203099 -3.2906,-36.203099c0,0 7.447502,3.585999 16.055,8.3261c8.607502,4.74 15.475002,12.4645 15.475002,12.4645c0,0 18.6409,-1.9674 27.942497,-3.0443c11.284004,-1.306301 26.395004,-1.755701 37.754997,-1.755701c11.361008,0 26.471008,0.4494 37.755997,1.755701c9.30101,1.0769 29.102005,4.1982 29.102005,4.1982c0,0 7.302002,-8.734201 15.764999,-13.330002c8.462006,-4.595699 14.025009,-8.037499 14.025009,-8.037499c0,0 -2.710999,19.620801 -2.710999,35.6261c-0.121002,11.024902 6.569992,32.391701 6.569992,36.507797z" stroke-width="5.81504" stroke-miterlimit="4" stroke-linejoin="round" stroke-linecap="round" stroke-dashoffset="75" stroke="#000000" fill="#ffff00" id="path3382"/>
  <path d="m83.995598,68.116898c0,-6.733799 6.475403,-12.192699 14.462402,-12.192699c7.987999,0 14.462997,5.4589 14.462997,12.192699" stroke-width="4.29686" stroke-miterlimit="4" stroke-linejoin="round" stroke-linecap="round" stroke="#000000" fill="#ffff00" id="path3644"/>
  <path d="m137.716003,96.102402c0,5.012596 -4.089996,10.235596 -9.128998,10.235596c-5.039009,0 -9.129005,-5.223 -9.129005,-10.235596c0,-5.013199 4.089996,-5.0429 9.129005,-5.0429c5.039001,0 9.128998,0.029701 9.128998,5.0429z" fill="#000000" id="path3388"/>
  <g transform="matrix(0.289998 0 0 0.288496 70.1959 717.445)" id="g3476">
   <g id="g3463">
    <path d="m-13.2405,-2178.580078l-203.116494,9.48999" stroke-width="18.0468" stroke-miterlimit="4" stroke-linejoin="round" stroke-linecap="round" stroke="#000000" fill="#463654" id="path3453"/>
    <path d="m-6.30234,-2148.290039l-199.539655,41.280029" stroke-width="18.0468" stroke-miterlimit="4" stroke-linejoin="round" stroke-linecap="round" stroke="#000000" fill="#463654" id="path3459"/>
    <path d="m-10.7748,-2113.870117l-191.177196,73.240112" stroke-width="18.0468" stroke-miterlimit="4" stroke-linejoin="round" stroke-linecap="round" stroke="#000000" fill="#463654" id="path3461"/>
   </g>
   <g transform="matrix(-1 0 0 1 415.597 0)" id="g3468">
    <path d="m-6.34388,-2178.580078l-203.117118,9.48999" stroke-width="18.0468" stroke-miterlimit="4" stroke-linejoin="round" stroke-linecap="round" stroke="#000000" fill="#463654" id="path3470"/>
    <path d="m0.59425,-2148.290039l-199.540249,41.280029" stroke-width="18.0468" stroke-miterlimit="4" stroke-linejoin="round" stroke-linecap="round" stroke="#000000" fill="#463654" id="path3472"/>
    <path d="m-3.87823,-2113.870117l-191.17777,73.240112" stroke-width="18.0468" stroke-miterlimit="4" stroke-linejoin="round" stroke-linecap="round" stroke="#000000" fill="#463654" id="path3474"/>
   </g>
  </g>
  <path d="m144.298004,68.116898c0,-6.733799 6.475998,-12.192699 14.462997,-12.192699c7.987991,0 14.462997,5.4589 14.462997,12.192699" stroke-width="4.29686" stroke-miterlimit="4" stroke-linejoin="round" stroke-linecap="round" stroke="#000000" fill="#ffff00" id="path3647"/>
  <g transform="matrix(0.428571 0 0 0.426351 -4.21242 608.18)" id="g3654">
   <path d="m310.06601,-1186.130005c0,36.449951 -24.789001,66 -48.95401,66c-19.845001,0 -36.604996,-19.930054 -41.962006,-47.23999" stroke-width="8.74612" stroke-miterlimit="4" stroke-linejoin="round" stroke-linecap="round" stroke="#000000" fill="#ffff00" id="path3649"/>
   <path d="m309.665985,-1186.130005c0,36.449951 24.789001,66 48.95401,66c19.845001,0 36.605011,-19.930054 41.962006,-47.23999" stroke-width="10.026" stroke-miterlimit="4" stroke-linejoin="round" stroke-linecap="round" stroke="#000000" fill="#ffff00" id="path3652"/>
  </g>
 </g>
</svg>